<?xml version="1.0" standalone="no"?>
<!DOCTYPE svg PUBLIC "-//W3C//DTD SVG 20010904//EN"
 "http://www.w3.org/TR/2001/REC-SVG-20010904/DTD/svg10.dtd">
<svg version="1.0" xmlns="http://www.w3.org/2000/svg"
 width="177.000000pt" height="178.000000pt" viewBox="0 0 177.000000 178.000000"
 preserveAspectRatio="xMidYMid meet">

<g transform="translate(0.000000,178.000000) scale(0.100000,-0.100000)"
fill="#000000" stroke="none">
<path d="M805 1768 c-107 -9 -193 -31 -293 -79 -249 -116 -414 -318 -489 -599
-25 -94 -24 -300 1 -400 88 -344 344 -593 682 -665 88 -19 270 -19 358 0 338
72 594 321 682 665 25 100 26 306 1 400 -75 280 -241 484 -490 600 -142 66
-289 92 -452 78z m270 -154 c147 -39 310 -147 400 -265 111 -147 161 -309 152
-493 -12 -250 -130 -457 -337 -591 -132 -84 -247 -118 -405 -118 -240 0 -446
100 -590 288 -102 133 -155 287 -155 452 0 123 22 217 75 328 106 220 306 371
547 415 71 12 239 4 313 -16z"/>
<path d="M450 1277 c0 -83 22 -145 72 -202 66 -75 100 -88 395 -159 150 -36
285 -72 301 -80 40 -21 99 -91 107 -127 4 -16 10 -29 14 -29 13 0 44 152 44
212 -1 63 -32 142 -77 196 -54 63 -96 78 -467 167 -195 47 -362 85 -371 85
-15 0 -18 -10 -18 -63z"/>
<path d="M526 883 c-3 -3 -6 -29 -6 -57 1 -89 60 -185 140 -226 19 -9 143 -43
275 -75 145 -34 251 -65 268 -77 15 -11 36 -36 46 -56 21 -41 21 -40 41 61 20
98 -23 201 -107 261 -34 23 -93 41 -320 96 -153 36 -290 69 -304 73 -14 4 -29
4 -33 0z"/>
</g>
</svg>
